<svg version="1.1" xmlns="http://www.w3.org/2000/svg" xmlns:xlink="http://www.w3.org/1999/xlink" x="0px" y="0px"
	 width="416.29px" height="402.14px" viewBox="0 0 416.29 402.14"
	 style="overflow:visible;enable-background:new 0 0 416.29 402.14;" xml:space="preserve">
<style type="text/css">
	.st0{fill:#231F20;stroke:#000000;stroke-miterlimit:10;}
	.st1{fill:#FFFFFF;stroke:#231F20;stroke-miterlimit:10;}
	.st2{fill:none;stroke:#000000;stroke-miterlimit:10;}
</style>
<defs>
</defs>
<ellipse class="st0" cx="208.14" cy="201.07" rx="207.64" ry="200.57"/>
<path class="st1" d="M368.56,204.37c-0.15,6.9-3.08,14.03-8.65,19.6c-3,3-6.44,5.23-10.06,6.66c-0.12,0.06-0.24,0.11-0.36,0.14
	c-0.01,0.2-0.04,0.4-0.06,0.6c-0.33,3.17-0.81,6.3-1.43,9.38c-7.77,38.62-31.69,55.9-31.69,55.9c-1.8,1.3-9.72,6.9-21.67,10.56
	c-6.41,1.96-13.07,3.09-19.77,3.35c-4.82,0.19-9.62-0.38-14.39-1.06c-4.71-0.67-9.47-0.99-14.17-1.81
	c-5.47-0.96-10.91-2.09-16.39-3.04c-12.54-2.2-23.09,0.01-31.29,1.71c-8.96,1.87-13.02,4.02-25.93,6.09
	c-6.25,1-11.01,1.41-12.31,1.52c-10.86,0.88-19.09,0.39-30.18-0.35c-6.35-0.42-12.69-1.05-18.98-1.99
	c-1.51-0.23-3.03-0.46-4.53-0.76c29.07-11.97,46.98-23.95,56.28-31.21c5.52-4.3,8.01-6.94,8.01-6.94c-1.29,0.13-2.57,0.22-3.83,0.27
	c-3,0.11-5.9-0.02-8.71-0.36c-30.13-3.56-49.18-30.12-49.18-30.12c7.72,0,16.72-5.15,16.72-5.15
	c-44.65-3.82-67.15-58.91-67.49-59.77c18.63,7.06,23.77,0.63,23.77,0.63C40.5,158.92,46.25,107.5,46.25,107.5
	s52.01,38.71,108.61,67.56c17.73,9.04,35.9,17.11,53.07,22.71c6.58,2.16,13.01,3.94,19.21,5.28c19.39,4.2,36.53,4.05,48.91-3.05
	c1.87-6.37,5.26-12.08,9.77-16.71c5.89-6.06,13.68-10.27,22.41-11.66c2.08-0.34,4.22-0.51,6.39-0.51c10.18,0,19.48,3.79,26.56,10.04
	c0.56,0.49,1.12,1,1.65,1.54c2.92,2.87,5.4,6.19,7.33,9.85C358.04,193.93,364.7,198.34,368.56,204.37z"/>
<line class="st2" x1="58.51" y1="177.58" x2="58.5" y2="177.57"/>
<path class="st2" d="M276.33,199.85c-0.09,0.05-0.18,0.11-0.28,0.15"/>
<path class="st1" d="M344.83,120c0,0-16.2,9.99-27.05,25.76c-5.16,7.47-9.1,16.24-9.55,25.87c-8.73,1.39-16.52,5.6-22.41,11.66
	c-4.51,4.63-7.9,10.34-9.77,16.71c-12.38,7.1-29.52,7.25-48.91,3.05c-6.2-1.34-12.63-3.12-19.21-5.28
	c1.84-2.83,29.1-44.81,36.9-43.56c0,0,1.7,20.53,4.56,19.26c0,0-1.43-17.62,36.07-45.12c0,0-2.14,14.28,0,14.93
	c0,0,4.95-5.89,12.75-12.07C309.75,122.04,327.56,112.25,344.83,120z"/>
<path class="st2" d="M207.93,197.77c-0.06,0.1-0.09,0.15-0.09,0.15"/>
</svg>